<svg xmlns="http://www.w3.org/2000/svg" fill="none" viewBox="0 0 412 286">
  <path fill="#3A00E5" d="M378.192 77.297c20.172 0 36.85 16.475 33.338 36.338A208.722 208.722 0 0 1 206 286a208.723 208.723 0 0 1-147.585-61.128A208.698 208.698 0 0 1 .47 113.635c-3.512-19.863 13.166-36.338 33.338-36.338 20.173 0 36.047 16.64 41.413 36.085A135.667 135.667 0 0 0 206 212.954a135.671 135.671 0 0 0 95.931-39.733 135.65 135.65 0 0 0 34.848-59.839c5.366-19.445 21.24-36.085 41.413-36.085Z"/>
  <path fill="#3A00E5" d="M276.861 70.856C276.861 31.723 245.135 0 206 0c-39.135 0-70.861 31.723-70.861 70.856 0 39.132 31.726 70.856 70.861 70.856 39.135 0 70.861-31.724 70.861-70.856Z"/>
</svg>
