<svg xmlns="http://www.w3.org/2000/svg" fill="none" viewBox="0 0 1271 286">
  <path fill="#000" d="M700.474 214c-2.494 0-4.547-.733-6.16-2.2-1.614-1.613-2.42-3.667-2.42-6.16v-63.36c0-10.413-2.714-18.627-8.14-24.64-5.427-6.16-12.394-9.24-20.9-9.24-9.094 0-16.574 3.08-22.44 9.24-5.72 6.013-8.507 14.08-8.36 24.2h-15.18c.146-9.827 2.273-18.48 6.38-25.96 4.106-7.48 9.753-13.273 16.94-17.38 7.186-4.107 15.326-6.16 24.42-6.16 8.653 0 16.28 2.053 22.88 6.16 6.746 4.107 11.953 9.9 15.62 17.38 3.813 7.48 5.72 16.28 5.72 26.4v63.36c0 2.493-.807 4.547-2.42 6.16-1.467 1.467-3.447 2.2-5.94 2.2Zm-154 0c-2.64 0-4.767-.733-6.38-2.2-1.467-1.613-2.2-3.667-2.2-6.16v-103.4c0-2.493.733-4.547 2.2-6.16 1.613-1.613 3.74-2.42 6.38-2.42 2.493 0 4.473.807 5.94 2.42 1.613 1.613 2.42 3.667 2.42 6.16v103.4c0 2.493-.807 4.547-2.42 6.16-1.467 1.467-3.447 2.2-5.94 2.2Zm77.22 0c-2.494 0-4.547-.733-6.16-2.2-1.614-1.613-2.42-3.667-2.42-6.16v-63.36c0-10.413-2.714-18.627-8.14-24.64-5.427-6.16-12.394-9.24-20.9-9.24-9.094 0-16.574 3.007-22.44 9.02-5.867 5.867-8.8 13.567-8.8 23.1h-12.1c.293-9.387 2.346-17.673 6.16-24.86 3.96-7.333 9.313-13.053 16.06-17.16 6.746-4.107 14.373-6.16 22.88-6.16 8.653 0 16.28 2.053 22.88 6.16 6.746 4.107 11.953 9.9 15.62 17.38 3.813 7.48 5.72 16.28 5.72 26.4v63.36c0 2.493-.807 4.547-2.42 6.16-1.467 1.467-3.447 2.2-5.94 2.2Zm177.158 1.1c-11.88 0-22.44-2.567-31.68-7.7-9.093-5.28-16.28-12.54-21.56-21.78-5.133-9.24-7.7-19.8-7.7-31.68 0-12.027 2.42-22.587 7.26-31.68 4.987-9.24 11.807-16.5 20.46-21.78 8.654-5.28 18.627-7.92 29.92-7.92 11.147 0 20.827 2.567 29.04 7.7 8.36 4.987 14.814 11.953 19.36 20.9 4.547 8.947 6.82 19.14 6.82 30.58 0 2.347-.733 4.253-2.2 5.72-1.466 1.32-3.373 1.98-5.72 1.98h-93.5v-14.08h95.26l-9.46 6.82c.147-8.507-1.393-16.133-4.62-22.88-3.226-6.747-7.846-12.027-13.86-15.84-5.866-3.813-12.906-5.72-21.12-5.72-8.36 0-15.693 1.98-22 5.94-6.306 3.96-11.22 9.46-14.74 16.5-3.373 6.893-5.06 14.813-5.06 23.76 0 8.947 1.907 16.867 5.72 23.76 3.96 6.893 9.314 12.32 16.06 16.28 6.747 3.96 14.52 5.94 23.32 5.94 5.28 0 10.56-.88 15.84-2.64 5.427-1.907 9.754-4.253 12.98-7.04 1.614-1.32 3.447-1.98 5.5-1.98 2.054-.147 3.814.367 5.28 1.54 1.907 1.76 2.86 3.667 2.86 5.72.147 2.053-.66 3.813-2.42 5.28-4.84 4.107-11 7.553-18.48 10.34-7.48 2.64-14.666 3.96-21.56 3.96Zm131.06 0c-11.587 0-22-2.64-31.24-7.92-9.24-5.427-16.573-12.76-22-22-5.28-9.24-7.92-19.727-7.92-31.46 0-11.587 2.567-22 7.7-31.24 5.28-9.24 12.393-16.5 21.34-21.78 8.947-5.427 19.067-8.14 30.36-8.14 9.827 0 18.7 2.127 26.62 6.38 7.92 4.107 14.3 9.607 19.14 16.5V50.76c0-2.64.807-4.693 2.42-6.16 1.613-1.613 3.667-2.42 6.16-2.42 2.493 0 4.547.807 6.16 2.42 1.613 1.467 2.42 3.52 2.42 6.16V154.6c-.293 11.44-3.153 21.78-8.58 31.02-5.28 9.093-12.54 16.28-21.78 21.56-9.093 5.28-19.36 7.92-30.8 7.92Zm0-15.4c8.507 0 16.06-1.98 22.66-5.94 6.747-4.107 12.027-9.607 15.84-16.5 3.96-6.893 5.94-14.74 5.94-23.54 0-8.653-1.98-16.427-5.94-23.32-3.813-7.04-9.093-12.54-15.84-16.5-6.6-3.96-14.153-5.94-22.66-5.94-8.36 0-15.913 1.98-22.66 5.94-6.747 3.96-12.1 9.46-16.06 16.5-3.96 6.893-5.94 14.667-5.94 23.32 0 8.8 1.98 16.647 5.94 23.54 3.96 6.893 9.313 12.393 16.06 16.5 6.747 3.96 14.3 5.94 22.66 5.94ZM1044.78 214c-2.64 0-4.77-.733-6.38-2.2-1.47-1.613-2.2-3.74-2.2-6.38V102.24c0-2.64.73-4.693 2.2-6.16 1.61-1.613 3.74-2.42 6.38-2.42 2.49 0 4.47.807 5.94 2.42 1.61 1.467 2.42 3.52 2.42 6.16v103.18c0 2.64-.81 4.767-2.42 6.38-1.47 1.467-3.45 2.2-5.94 2.2Zm-.22-143.22c-3.23 0-6.01-1.173-8.36-3.52-2.35-2.347-3.52-5.207-3.52-8.58 0-3.667 1.17-6.527 3.52-8.58 2.49-2.2 5.35-3.3 8.58-3.3 3.08 0 5.79 1.1 8.14 3.3 2.49 2.053 3.74 4.913 3.74 8.58 0 3.373-1.17 6.233-3.52 8.58-2.35 2.347-5.21 3.52-8.58 3.52Zm105.39 144.32c-11.58 0-21.92-2.64-31.02-7.92-8.94-5.427-16.06-12.76-21.34-22-5.13-9.24-7.7-19.653-7.7-31.24 0-11.733 2.5-22.22 7.48-31.46 4.99-9.24 11.81-16.5 20.46-21.78 8.66-5.427 18.63-8.14 29.92-8.14 8.95 0 17.16 1.76 24.64 5.28 7.63 3.52 14.3 8.8 20.02 15.84 1.62 1.76 2.2 3.667 1.76 5.72-.44 1.907-1.68 3.593-3.74 5.06-1.61 1.173-3.44 1.613-5.5 1.32-1.9-.44-3.59-1.54-5.06-3.3-8.5-9.68-19.21-14.52-32.12-14.52-8.21 0-15.47 1.98-21.78 5.94-6.16 3.96-11 9.387-14.52 16.28-3.37 6.893-5.06 14.813-5.06 23.76 0 8.8 1.84 16.647 5.5 23.54 3.67 6.893 8.8 12.32 15.4 16.28 6.6 3.96 14.16 5.94 22.66 5.94 5.72 0 10.93-.733 15.62-2.2 4.84-1.613 9.1-4.033 12.76-7.26 1.76-1.467 3.6-2.273 5.5-2.42 1.91-.147 3.67.44 5.28 1.76 1.76 1.613 2.72 3.447 2.86 5.5.3 2.053-.36 3.813-1.98 5.28-10.7 9.827-24.05 14.74-40.04 14.74Zm89.26-1.1c-2.64 0-4.76-.733-6.38-2.2-1.46-1.613-2.2-3.74-2.2-6.38V102.24c0-2.64.74-4.693 2.2-6.16 1.62-1.613 3.74-2.42 6.38-2.42 2.5 0 4.48.807 5.94 2.42 1.62 1.467 2.42 3.52 2.42 6.16v103.18c0 2.64-.8 4.767-2.42 6.38-1.46 1.467-3.44 2.2-5.94 2.2Zm-.22-143.22c-3.22 0-6.01-1.173-8.36-3.52-2.34-2.347-3.52-5.207-3.52-8.58 0-3.667 1.18-6.527 3.52-8.58 2.5-2.2 5.36-3.3 8.58-3.3 3.08 0 5.8 1.1 8.14 3.3 2.5 2.053 3.74 4.913 3.74 8.58 0 3.373-1.17 6.233-3.52 8.58-2.34 2.347-5.2 3.52-8.58 3.52Z"/>
  <path fill="#3A00E5" d="M378.192 77.297c20.172 0 36.85 16.475 33.338 36.338A208.722 208.722 0 0 1 206 286a208.723 208.723 0 0 1-147.585-61.128A208.698 208.698 0 0 1 .47 113.635c-3.512-19.863 13.166-36.338 33.338-36.338 20.173 0 36.047 16.64 41.413 36.085A135.667 135.667 0 0 0 206 212.954a135.671 135.671 0 0 0 95.931-39.733 135.65 135.65 0 0 0 34.848-59.839c5.366-19.445 21.24-36.085 41.413-36.085Z"/>
  <path fill="#3A00E5" d="M276.861 70.856C276.861 31.723 245.135 0 206 0c-39.135 0-70.861 31.723-70.861 70.856 0 39.132 31.726 70.856 70.861 70.856 39.135 0 70.861-31.724 70.861-70.856Z"/>
</svg>
